<?xml version="1.0" encoding="utf-8"?>
<!-- Generator: Adobe Illustrator 24.1.0, SVG Export Plug-In . SVG Version: 6.00 Build 0)  -->
<svg version="1.1" id="Layer_1" xmlns="http://www.w3.org/2000/svg" xmlns:xlink="http://www.w3.org/1999/xlink" x="0px" y="0px"
	 viewBox="0 0 612 792" style="enable-background:new 0 0 612 792;" xml:space="preserve">
<style type="text/css">
	.st0{fill:#FFFFFF;stroke:#000000;stroke-miterlimit:10;}
</style>
<g>
	<path class="st0" d="M249.5,231c-2.7,0-4.8,2.2-4.8,4.8v21.9v17.4c0,2-1.6,3.7-3.7,3.7h-29.8V321h30.1l0.1-3.4h50.4v-14.1h60.1V321
		h20.2c4.2,0,7.5-3.4,7.5-7.5V292c0-3.9,3.2-7,7-7h26.2v-54L249.5,231L249.5,231z M251.5,242.2c-2.2,0-3.9-1.8-4-4c0-2.2,1.8-4,4-4
		s4,1.8,4,4S253.7,242.2,251.5,242.2z M372.2,242.2c-2.2,0-3.9-1.8-4-4c0-2.2,1.8-4,4-4s4,1.8,4,4S374.4,242.2,372.2,242.2z
		 M319.9,293.5h-58.5v-50.7h58.5V293.5z M331.2,259.3c-2.7,0-4.8-2.2-4.8-4.8s2.2-4.8,4.8-4.8s4.8,2.2,4.8,4.8
		S333.9,259.3,331.2,259.3z M354.3,259.3c-2.7,0-4.8-2.2-4.8-4.8s2.2-4.8,4.8-4.8c2.7,0,4.8,2.2,4.8,4.8S356.9,259.3,354.3,259.3z"
		/>
</g>
<g>
	<path class="st0" d="M147.1,290.7h2.4v-24.3c-0.6,0-1.2-0.5-1.2-1.2c0-0.7,0.5-1.2,1.2-1.2c0.6,0,1.2,0.5,1.2,1.2h6.8v-3.9v-19.1
		c0-1.7-1.4-3-3-3h-7.2c-1.7,0-3,1.4-3,3v45.5C144.1,289.4,145.4,290.7,147.1,290.7z M149.6,251.7c-1.6,0-3-1.3-3-3c0-1.6,1.3-3,3-3
		c1.6,0,3,1.3,3,3S151.3,251.7,149.6,251.7z"/>
</g>
<g>
	<path class="st0" d="M199.7,320.5v-52.4c0-3.6-2.9-6.5-6.5-6.5h-26.6v8.2c0.7,0,1.2,0.6,1.2,1.4s-0.5,1.4-1.2,1.4s-1.2-0.6-1.2-1.4
		h-7.9v49.3H199.7z"/>
</g>
<g>
	<path class="st0" d="M467.5,246.4c1.8-3,1.8-8.8,1.8-10v-28c0-1.7-1.4-3-3-3h-11.2c-1.7,0-3,1.4-3,3v16.1v10.9h6.8
		c0-0.6,0.5-1.2,1.2-1.2c0.6,0,1.2,0.5,1.2,1.2s-0.5,1.2-1.2,1.2V257L467.5,246.4z M457,214.9c0-1.6,1.3-2.8,2.8-2.8
		s2.8,1.3,2.8,2.8s-1.3,2.8-2.8,2.8S457,216.5,457,214.9z"/>
</g>
<g>
	<path class="st0" d="M425.2,273.7h20.9v-7.9c-0.6,0-1.2-0.5-1.2-1.2c0-0.7,0.5-1.2,1.2-1.2c0.7,0,1.2,0.5,1.2,1.2h6.8V243h-7.6
		v-21.6h-21.2L425.2,273.7L425.2,273.7z"/>
</g>
</svg>
